<?xml version="1.0" standalone="no"?>
<!DOCTYPE svg PUBLIC "-//W3C//DTD SVG 20010904//EN"
 "http://www.w3.org/TR/2001/REC-SVG-20010904/DTD/svg10.dtd">
<svg version="1.0" xmlns="http://www.w3.org/2000/svg"
 width="270.000000pt" height="270.000000pt" viewBox="0 0 270.000000 270.000000"
 preserveAspectRatio="xMidYMid meet">
<metadata>
Created by potrace 1.11, written by Peter Selinger 2001-2013
</metadata>
<g transform="translate(0.000000,270.000000) scale(0.100000,-0.100000)"
fill="#000000" stroke="none">
<path d="M316 2314 c-83 -30 -145 -91 -176 -173 -20 -52 -20 -71 -20 -761 0
-578 3 -716 14 -754 31 -101 121 -181 231 -204 131 -27 269 46 326 173 22 48
23 63 26 340 1 160 2 308 3 330 l0 39 223 -222 c262 -260 288 -277 422 -277
121 0 140 12 390 262 118 119 217 214 220 212 2 -3 5 -148 6 -322 l1 -318 30
-59 c31 -62 85 -116 147 -147 56 -28 192 -25 251 5 81 42 142 119 161 200 4
20 9 355 9 744 l2 707 -26 56 c-52 114 -163 181 -287 172 -117 -7 -127 -15
-537 -425 l-374 -374 -382 380 c-427 427 -434 432 -556 431 -36 0 -83 -7 -104
-15z"/>
</g>
</svg>
